<svg width="447" height="462" viewBox="0 0 447 462" fill="none" xmlns="http://www.w3.org/2000/svg">
<path d="M-10.6208 33.2185C-87.7028 76.6104 -149.228 146.673 -198.518 215.762C-279.405 234.734 -248.118 317.674 -226.848 370.357C-211.298 408.874 -187.795 453.147 -160.605 485.472C-120.685 532.933 -64.1825 588.836 -5.41304 616.028C50.9523 642.107 125.263 652.385 187.692 651.989C258.384 651.541 330.142 629.688 388.088 591.402C418.423 571.359 449.509 552.974 445.998 516.743C441.603 471.383 414.44 416.008 377.255 385.406C326.381 343.536 258.469 312.986 234.354 249.769C218.165 207.33 209.127 162.748 191.233 120.777L190.904 120.004C174.05 80.4689 150.773 25.8671 107.284 5.46569C70.198 -11.9315 19.4701 16.2793 -10.6208 33.2185Z" fill="#E489FE"/>
</svg>
