<svg width="405" height="901" viewBox="0 0 405 901" fill="none" xmlns="http://www.w3.org/2000/svg">
<path d="M330.72 64.0838C388.553 25.6012 459.852 20.8886 527.399 0C563.724 9.73556 576.478 59.6379 577.362 87.3581C578.189 113.279 584.5 137.748 584.5 163.398C584.5 191.282 590.331 219.098 593.422 246.93C595.74 267.806 594.006 292.328 600.361 312.767C613.319 354.443 626.907 396.417 639.618 438.225C651.366 476.868 651.671 516.872 664.599 555.393C674.617 585.244 674.977 616.778 680.857 647.215C689.669 692.827 687.407 740.77 672.133 784.628C653.426 838.348 609.077 888.134 563.484 929.375C538.857 951.65 520.871 965.706 482.988 971.3C439.233 977.762 397.036 989.486 352.132 989.952C298.95 990.504 237.61 996.192 185.589 985.807C132.482 975.206 76.2442 957.957 34.3125 928.737C-14.0861 895.012 -0.173952 826.636 9.92577 781.759C25.0172 714.703 74.7231 653.423 120.171 597.392L120.36 597.159C141.571 571.009 171.302 549.742 191.934 523.351C211.48 498.349 229.202 463.169 233.966 433.921C238.875 403.78 229.355 372.113 226.829 342.099C224.295 311.997 219.897 279.928 227.622 250.118C244.903 183.422 260.847 110.578 330.72 64.0838Z" fill="#A1FF85"/>
</svg>
