<svg width="183" height="336" viewBox="0 0 183 336" fill="none" xmlns="http://www.w3.org/2000/svg">
<path d="M11.2221 115.021C23.1934 108.528 36.5226 121.71 44.9029 138.834C45.014 147.843 48.3915 155.752 52.5163 162.099L36.4798 176.904C14.9003 167.13 -6.55938 130.727 7.56068 117.69C8.66864 116.654 9.90154 115.761 11.2309 115.029L11.2221 115.021ZM58.1632 169.053L41.834 184.118C61.7898 219.549 89.7198 183.886 58.1632 169.053ZM121.828 251.72C120.499 252.451 119.266 253.345 118.158 254.381C104.038 267.418 125.497 303.82 147.077 313.593L163.114 298.788C158.989 292.442 155.62 284.533 155.499 275.524C147.12 258.401 133.791 245.219 121.818 251.711L121.828 251.72ZM168.769 305.753L152.44 320.815C172.395 356.23 200.326 320.574 168.76 305.752L168.769 305.753ZM121.441 133.097C110.784 141.573 117.728 158.979 130.224 173.372C138.473 176.996 144.447 183.188 148.684 189.457L168.605 180.483C168.021 156.815 142.866 122.859 125.342 130.762C123.955 131.376 122.65 132.16 121.457 133.097L121.441 133.097ZM152.896 197.376C154.236 232.198 197.997 220.424 173.142 188.237L152.896 197.376ZM2.79178 6.22236C-5.42435 17.0759 5.61884 32.1818 21.2683 43.0622C30.1641 44.5222 37.4856 49.0735 43.1412 54.0718L60.1907 40.4441C53.7886 17.6601 20.993 -9.03809 5.98048 2.98378C4.78753 3.92063 3.71612 5.00245 2.79105 6.20422L2.79178 6.22236ZM49.1991 60.6926C59.1333 94.0987 98.6149 71.8568 66.5507 46.824L49.2078 60.6926H49.1991Z" fill="#008EFE"/>
</svg>
