<svg width="38" height="22" viewBox="0 0 38 22" fill="none" xmlns="http://www.w3.org/2000/svg">
<path d="M2.11112 22C1.51297 22 1.01123 21.824 0.605896 21.472C0.200563 21.12 -0.0014001 20.6849 7.30488e-06 20.1667C7.30488e-06 19.6472 0.202674 19.2115 0.608007 18.8595C1.01334 18.5075 1.51438 18.3321 2.11112 18.3333H35.8889C36.487 18.3333 36.9888 18.5093 37.3941 18.8613C37.7994 19.2133 38.0014 19.6484 38 20.1667C38 20.6861 37.7973 21.1218 37.392 21.4738C36.9867 21.8258 36.4856 22.0012 35.8889 22H2.11112ZM2.11112 12.8333C1.51297 12.8333 1.01123 12.6573 0.605896 12.3053C0.200563 11.9533 -0.0014001 11.5182 7.30488e-06 11C7.30488e-06 10.4806 0.202674 10.0448 0.608007 9.69283C1.01334 9.34083 1.51438 9.16545 2.11112 9.16667H35.8889C36.487 9.16667 36.9888 9.34267 37.3941 9.69467C37.7994 10.0467 38.0014 10.4818 38 11C38 11.5194 37.7973 11.9552 37.392 12.3072C36.9867 12.6592 36.4856 12.8346 35.8889 12.8333H2.11112ZM2.11112 3.66667C1.51297 3.66667 1.01123 3.49067 0.605896 3.13867C0.200563 2.78667 -0.0014001 2.35156 7.30488e-06 1.83334C7.30488e-06 1.31389 0.202674 0.878173 0.608007 0.526173C1.01334 0.174173 1.51438 -0.00121588 2.11112 6.3437e-06H35.8889C36.487 6.3437e-06 36.9888 0.176006 37.3941 0.528006C37.7994 0.880006 38.0014 1.31512 38 1.83334C38 2.35278 37.7973 2.7885 37.392 3.1405C36.9867 3.4925 36.4856 3.66789 35.8889 3.66667H2.11112Z" fill="black"/>
</svg>
