<svg width="34" height="34" viewBox="0 0 34 34" fill="none" xmlns="http://www.w3.org/2000/svg">
<path d="M25.5 14.5714V12.1429H8.5V14.5714H14.5714V17.8913L9.87457 26.112L11.9826 27.3166L16.49 19.4286H17.51L22.0174 27.3166L24.1254 26.112L19.4286 17.8913V14.5714H25.5Z" fill="black"/>
<path d="M17 10.9286C18.3412 10.9286 19.4286 9.84131 19.4286 8.50004C19.4286 7.15878 18.3412 6.07147 17 6.07147C15.6587 6.07147 14.5714 7.15878 14.5714 8.50004C14.5714 9.84131 15.6587 10.9286 17 10.9286Z" fill="black"/>
<path d="M17 34C13.6377 34 10.3509 33.003 7.55531 31.135C4.75968 29.267 2.58074 26.612 1.29406 23.5056C0.00736581 20.3993 -0.329291 16.9811 0.326658 13.6835C0.982606 10.3858 2.6017 7.35668 4.97919 4.97919C7.35668 2.6017 10.3858 0.982606 13.6835 0.326658C16.9811 -0.329291 20.3993 0.00736581 23.5056 1.29406C26.612 2.58074 29.267 4.75968 31.135 7.55531C33.003 10.3509 34 13.6377 34 17C33.9949 21.5071 32.2021 25.8281 29.0151 29.0151C25.8281 32.2021 21.5071 33.9949 17 34ZM17 2.42858C14.118 2.42858 11.3008 3.28318 8.90455 4.88431C6.5083 6.48544 4.64064 8.76118 3.53776 11.4238C2.43489 14.0863 2.14632 17.0162 2.70856 19.8427C3.27081 22.6693 4.6586 25.2657 6.69645 27.3036C8.7343 29.3414 11.3307 30.7292 14.1573 31.2914C16.9838 31.8537 19.9137 31.5651 22.5762 30.4622C25.2388 29.3594 27.5146 27.4917 29.1157 25.0955C30.7168 22.6992 31.5714 19.882 31.5714 17C31.5669 13.1368 30.0303 9.43312 27.2986 6.70142C24.5669 3.96972 20.8632 2.43308 17 2.42858Z" fill="black"/>
</svg>
