<svg width="34" height="36" viewBox="0 0 34 36" fill="none" xmlns="http://www.w3.org/2000/svg">
<path d="M17.0065 13.0986C15.8069 13.0986 14.6836 13.5653 13.833 14.4183C12.9865 15.2713 12.5171 16.3979 12.5171 17.6009C12.5171 18.8039 12.9865 19.9305 13.833 20.7835C14.6836 21.6325 15.8069 22.1032 17.0065 22.1032C18.2061 22.1032 19.3295 21.6325 20.18 20.7835C21.0266 19.9305 21.496 18.8039 21.496 17.6009C21.496 16.3979 21.0266 15.2713 20.18 14.4183C19.7646 13.9985 19.2701 13.6656 18.7253 13.4391C18.1805 13.2125 17.5963 13.0968 17.0065 13.0986ZM33.548 22.574L30.9242 20.3248C31.0485 19.5604 31.1127 18.7798 31.1127 18.0033C31.1127 17.2267 31.0485 16.4421 30.9242 15.6817L33.548 13.4325C33.7462 13.2624 33.8881 13.0357 33.9547 12.7827C34.0214 12.5297 34.0097 12.2624 33.9211 12.0163L33.885 11.9116C33.1629 9.88657 32.0809 8.00945 30.6915 6.37125L30.6193 6.28676C30.4505 6.0878 30.2257 5.94478 29.9743 5.87655C29.7229 5.80832 29.4568 5.81807 29.211 5.90452L25.9533 7.06732C24.7497 6.07753 23.4097 5.29697 21.9573 4.75379L21.3275 1.33782C21.2799 1.08049 21.1555 0.843743 20.9706 0.659045C20.7857 0.474346 20.5491 0.350436 20.2924 0.303776L20.184 0.283658C18.0978 -0.0945528 15.8992 -0.0945528 13.813 0.283658L13.7046 0.303776C13.4479 0.350436 13.2113 0.474346 13.0264 0.659045C12.8415 0.843743 12.7171 1.08049 12.6695 1.33782L12.0357 4.76989C10.5971 5.31739 9.25692 6.09607 8.06778 7.07537L4.78596 5.90452C4.54029 5.81738 4.27399 5.80728 4.02246 5.87555C3.77092 5.94383 3.54606 6.08725 3.37775 6.28676L3.30553 6.37125C1.91855 8.0112 0.836833 9.88784 0.111979 11.9116L0.0758713 12.0163C-0.104669 12.5192 0.0437754 13.0825 0.448988 13.4325L3.10493 15.7058C2.98056 16.4623 2.92038 17.2348 2.92038 17.9992C2.92038 18.7718 2.98056 19.5443 3.10493 20.2926L0.457012 22.5659C0.258801 22.7361 0.11694 22.9628 0.0502906 23.2157C-0.0163586 23.4687 -0.00463772 23.7361 0.0838952 23.9822L0.120003 24.0868C0.846176 26.1107 1.91738 27.9816 3.31356 29.6272L3.38577 29.7117C3.5545 29.9107 3.77937 30.0537 4.03075 30.1219C4.28214 30.1902 4.54824 30.1804 4.79399 30.094L8.07581 28.9231C9.27138 29.9089 10.6034 30.6894 12.0437 31.2286L12.6776 34.6607C12.7251 34.918 12.8496 35.1547 13.0345 35.3394C13.2193 35.5241 13.4559 35.648 13.7127 35.6947L13.821 35.7148C15.9278 36.0951 18.0853 36.0951 20.1921 35.7148L20.3004 35.6947C20.5572 35.648 20.7937 35.5241 20.9786 35.3394C21.1635 35.1547 21.288 34.918 21.3355 34.6607L21.9654 31.2447C23.4177 30.6975 24.7577 29.9209 25.9613 28.9312L29.2191 30.094C29.4647 30.1811 29.731 30.1912 29.9826 30.1229C30.2341 30.0546 30.459 29.9112 30.6273 29.7117L30.6995 29.6272C32.0957 27.9736 33.1669 26.1107 33.8931 24.0868L33.9292 23.9822C34.1017 23.4833 33.9532 22.924 33.548 22.574ZM17.0065 24.6743C13.1109 24.6743 9.95342 21.5078 9.95342 17.6009C9.95342 13.6941 13.1109 10.5276 17.0065 10.5276C20.9022 10.5276 24.0596 13.6941 24.0596 17.6009C24.0596 21.5078 20.9022 24.6743 17.0065 24.6743Z" fill="black"/>
</svg>
