<svg width="30" height="39" viewBox="0 0 30 39" fill="none" xmlns="http://www.w3.org/2000/svg">
<path d="M12.47 0.000168135L11.6557 2.74429C12.7373 2.52122 13.8555 2.40515 15.0016 2.40515C15.8737 2.40515 16.7305 2.47412 17.5667 2.605L16.7837 0H12.47V0.000168135ZM15.0015 4.10853C6.70716 4.10853 0 10.8822 0 19.2621C0 27.6419 6.70716 34.4156 15.0015 34.4156C23.2955 34.4156 30 27.642 30 19.262C30 10.882 23.2956 4.10837 15.0014 4.10837L15.0015 4.10853ZM15.0015 7.61498C21.3689 7.61498 26.5293 12.8288 26.5293 19.2622C26.5293 25.6954 21.3689 30.912 15.0014 30.912C8.63373 30.912 3.47076 25.6954 3.47076 19.2622C3.47076 12.8288 8.63373 7.61498 15.0014 7.61498H15.0015ZM14.9987 10.8902C10.4231 10.8902 6.71248 14.6366 6.71248 19.2595C6.71248 23.8824 10.4231 27.6288 14.9987 27.6288C19.5743 27.6288 23.2824 23.8824 23.2824 19.2595C23.2824 14.6366 19.5743 10.8902 14.9987 10.8902ZM15.0014 14.2284C17.7531 14.2284 19.9834 16.4818 19.9834 19.2621C19.9834 22.0423 17.7531 24.2957 15.0013 24.2957C12.2493 24.2957 10.019 22.0423 10.019 19.262C10.019 16.4817 12.2493 14.2283 15.0012 14.2283L15.0014 14.2284ZM15.0014 16.828C13.6699 16.828 12.5895 17.9171 12.5895 19.2623C12.5895 20.6073 13.6699 21.6989 15.0014 21.6989C16.3326 21.6989 17.4104 20.6074 17.4104 19.2621C17.4104 17.9171 16.3327 16.8281 15.0013 16.8281L15.0014 16.828ZM3.21575 31.1879L0.89764 38.9999H4.80023L6.48861 33.7585C5.29678 33.0415 4.19746 32.178 3.21575 31.1879ZM26.2926 31.6663C25.2907 32.5972 24.1802 33.4013 22.9858 34.0608L24.5884 39H28.4936L26.2927 31.6663H26.2926ZM12.5533 35.9376V38.9999H16.8901V36.0114C16.263 36.083 15.6325 36.1189 15.0014 36.119C14.1697 36.119 13.3521 36.0568 12.5531 35.9377L12.5533 35.9376Z" fill="black"/>
</svg>
