<svg width="34" height="21" viewBox="0 0 34 21" fill="none" xmlns="http://www.w3.org/2000/svg">
<path d="M17 0C18.315 0 19.5762 0.53405 20.5061 1.48467C21.4359 2.43528 21.9583 3.72459 21.9583 5.06897C21.9583 6.41334 21.4359 7.70265 20.5061 8.65326C19.5762 9.60388 18.315 10.1379 17 10.1379C15.685 10.1379 14.4238 9.60388 13.4939 8.65326C12.5641 7.70265 12.0417 6.41334 12.0417 5.06897C12.0417 3.72459 12.5641 2.43528 13.4939 1.48467C14.4238 0.53405 15.685 0 17 0ZM7.08333 3.62069C7.87667 3.62069 8.61333 3.83793 9.25083 4.22897C9.03833 6.3 9.63333 8.35655 10.8517 9.96414C10.1433 11.3545 8.72667 12.3103 7.08333 12.3103C5.95616 12.3103 4.87516 11.8526 4.07813 11.0378C3.2811 10.223 2.83333 9.11784 2.83333 7.96552C2.83333 6.8132 3.2811 5.70807 4.07813 4.89326C4.87516 4.07845 5.95616 3.62069 7.08333 3.62069ZM26.9167 3.62069C28.0438 3.62069 29.1248 4.07845 29.9219 4.89326C30.7189 5.70807 31.1667 6.8132 31.1667 7.96552C31.1667 9.11784 30.7189 10.223 29.9219 11.0378C29.1248 11.8526 28.0438 12.3103 26.9167 12.3103C25.2733 12.3103 23.8567 11.3545 23.1483 9.96414C24.3835 8.33399 24.9568 6.28001 24.7492 4.22897C25.3867 3.83793 26.1233 3.62069 26.9167 3.62069ZM7.79167 18.4655C7.79167 15.4676 11.9142 13.0345 17 13.0345C22.0858 13.0345 26.2083 15.4676 26.2083 18.4655V21H7.79167V18.4655ZM0 21V18.8276C0 16.8145 2.6775 15.12 6.30417 14.6276C5.46833 15.6124 4.95833 16.9738 4.95833 18.4655V21H0ZM34 21H29.0417V18.4655C29.0417 16.9738 28.5317 15.6124 27.6958 14.6276C31.3225 15.12 34 16.8145 34 18.8276V21Z" fill="black"/>
</svg>
