<svg width="30" height="30" viewBox="0 0 30 30" fill="none" xmlns="http://www.w3.org/2000/svg">
<path d="M15 0C23.2845 0 30 6.7155 30 15C30 23.2845 23.2845 30 15 30C6.7155 30 0 23.2845 0 15C0 6.7155 6.7155 0 15 0ZM15 3C11.8174 3 8.76515 4.26428 6.51472 6.51472C4.26428 8.76515 3 11.8174 3 15C3 18.1826 4.26428 21.2348 6.51472 23.4853C8.76515 25.7357 11.8174 27 15 27C18.1826 27 21.2348 25.7357 23.4853 23.4853C25.7357 21.2348 27 18.1826 27 15C27 11.8174 25.7357 8.76515 23.4853 6.51472C21.2348 4.26428 18.1826 3 15 3ZM20.7495 8.0055C20.9216 7.88481 21.1307 7.82872 21.3401 7.84711C21.5494 7.86549 21.7456 7.95717 21.894 8.106C22.0421 8.25411 22.1329 8.44994 22.1502 8.65868C22.1675 8.86742 22.1102 9.07553 21.9885 9.246C18.7185 13.815 16.9185 16.263 16.5915 16.5915C16.1691 17.013 15.5967 17.2498 15 17.2498C14.4033 17.2498 13.8309 17.013 13.4085 16.5915C12.987 16.1691 12.7502 15.5967 12.7502 15C12.7502 14.4033 12.987 13.8309 13.4085 13.4085C13.9695 12.849 16.416 11.0475 20.7495 8.0055ZM23.25 13.5C23.6478 13.5 24.0294 13.658 24.3107 13.9393C24.592 14.2206 24.75 14.6022 24.75 15C24.75 15.3978 24.592 15.7794 24.3107 16.0607C24.0294 16.342 23.6478 16.5 23.25 16.5C22.8522 16.5 22.4706 16.342 22.1893 16.0607C21.908 15.7794 21.75 15.3978 21.75 15C21.75 14.6022 21.908 14.2206 22.1893 13.9393C22.4706 13.658 22.8522 13.5 23.25 13.5ZM6.75 13.5C7.14782 13.5 7.52936 13.658 7.81066 13.9393C8.09196 14.2206 8.25 14.6022 8.25 15C8.25 15.3978 8.09196 15.7794 7.81066 16.0607C7.52936 16.342 7.14782 16.5 6.75 16.5C6.35218 16.5 5.97064 16.342 5.68934 16.0607C5.40804 15.7794 5.25 15.3978 5.25 15C5.25 14.6022 5.40804 14.2206 5.68934 13.9393C5.97064 13.658 6.35218 13.5 6.75 13.5ZM10.227 8.106C10.5083 8.38766 10.6661 8.76951 10.6658 9.16756C10.6656 9.56561 10.5072 9.94724 10.2255 10.2285C9.94384 10.5098 9.56199 10.6676 9.16394 10.6673C8.76589 10.6671 8.38426 10.5087 8.103 10.227C7.96373 10.0875 7.8533 9.92201 7.778 9.73986C7.70271 9.55772 7.66403 9.36253 7.66417 9.16544C7.66431 8.96835 7.70326 8.77321 7.77882 8.59118C7.85437 8.40914 7.96504 8.24377 8.1045 8.1045C8.38616 7.82324 8.76801 7.66538 9.16606 7.66567C9.36315 7.66581 9.55829 7.70476 9.74032 7.78032C9.92236 7.85587 10.0877 7.96654 10.227 8.106ZM15 5.25C15.3978 5.25 15.7794 5.40804 16.0607 5.68934C16.342 5.97064 16.5 6.35218 16.5 6.75C16.5 7.14782 16.342 7.52936 16.0607 7.81066C15.7794 8.09196 15.3978 8.25 15 8.25C14.6022 8.25 14.2206 8.09196 13.9393 7.81066C13.658 7.52936 13.5 7.14782 13.5 6.75C13.5 6.35218 13.658 5.97064 13.9393 5.68934C14.2206 5.40804 14.6022 5.25 15 5.25Z" fill="black"/>
</svg>
